<?xml version="1.0" encoding="UTF-8"?>
<svg xmlns="http://www.w3.org/2000/svg" width="660" height="660" viewBox="0 0 660 660" fill="none" version="1.2" baseProfile="tiny-ps">
  <circle cx="330" cy="330" r="330" fill="white"/>
  <path d="M336.158 141.949L279.347 234.949L250.694 276.949C210.02 339.616 170.17 473.149 336.158 505.949V141.949Z" fill="black"/>
  <path d="M335.664 141.949L392.475 234.949L421.128 276.949C461.802 339.616 501.652 473.149 335.664 505.949V141.949Z" fill="black"/>
  <ellipse cx="335.979" cy="384.449" rx="120.045" ry="121.5" fill="black"/>
  <path d="M404.282 329.54C415.463 351.064 417.081 379.364 406.434 406.227C388.849 450.596 344.469 474.242 307.308 459.044C304.118 457.739 301.085 456.19 298.217 454.421C304.269 460.997 311.622 466.261 320.125 469.738C356.202 484.493 399.287 461.536 416.358 418.463C429.31 385.782 423.566 350.91 404.282 329.54Z" fill="white"/>
  <g clip-path="url(#paint0_angular_162_814_clip_path)" data-figma-skip-parse="true">
    <g transform="matrix(0.278622 0.14775 -0.15388 0.297261 326.099 300.7)"/>
  </g>
  <path d="M191.818 68.5907C258.194 32.9059 335.595 24.4548 407.963 44.9907C480.331 65.5268 542.111 113.473 580.482 178.882C615.393 238.393 628.486 308.204 617.889 376.147L639.23 360.819C642.79 358.262 647.724 359.11 650.25 362.713C652.777 366.316 651.939 371.309 648.379 373.866L590.366 415.537C586.806 418.093 581.872 417.246 579.345 413.643L538.175 354.926C535.649 351.323 536.487 346.33 540.046 343.772C543.606 341.215 548.54 342.063 551.066 345.666L567.885 369.652C589.273 238.089 502.937 112.701 372.799 88.0232C240.86 63.0041 113.863 150.976 89.1429 284.515C64.4235 418.053 151.342 546.589 283.281 571.609C396.497 593.077 506.073 531.347 550.511 429.022L555.777 431.375L565.778 457.193L591.074 447.155L596.533 449.596C566.166 519.179 510.496 574.259 441.074 603.408C371.652 632.555 293.807 633.534 223.691 606.14C153.576 578.745 96.5715 525.08 64.5069 456.281C32.4424 387.482 27.7792 308.829 51.4841 236.642C75.1891 164.455 125.443 104.276 191.818 68.5907Z" data-figma-gradient-fill="{&quot;type&quot;:&quot;GRADIENT_ANGULAR&quot;,&quot;stops&quot;:[{&quot;color&quot;:{&quot;r&quot;:0.33508229255676270,&quot;g&quot;:0.48725283145904541,&quot;b&quot;:0.63942307233810425,&quot;a&quot;:1.0},&quot;position&quot;:0.0},{&quot;color&quot;:{&quot;r&quot;:0.066666670143604279,&quot;g&quot;:0.14901961386203766,&quot;b&quot;:0.23529411852359772,&quot;a&quot;:1.0},&quot;position&quot;:1.0}],&quot;stopsVar&quot;:[{&quot;color&quot;:{&quot;r&quot;:0.33508229255676270,&quot;g&quot;:0.48725283145904541,&quot;b&quot;:0.63942307233810425,&quot;a&quot;:1.0},&quot;position&quot;:0.0},{&quot;color&quot;:{&quot;r&quot;:0.066666670143604279,&quot;g&quot;:0.14901961386203766,&quot;b&quot;:0.23529411852359772,&quot;a&quot;:1.0},&quot;position&quot;:1.0}],&quot;transform&quot;:{&quot;m00&quot;:557.24468994140625,&quot;m01&quot;:-307.76034545898438,&quot;m02&quot;:201.35694885253906,&quot;m10&quot;:295.49972534179688,&quot;m11&quot;:594.520996093750,&quot;m12&quot;:-144.31080627441406},&quot;opacity&quot;:1.0,&quot;blendMode&quot;:&quot;NORMAL&quot;,&quot;visible&quot;:true}"/>
  <defs>
    <clipPath id="paint0_angular_162_814_clip_path">
      <path d="M191.818 68.5907C258.194 32.9059 335.595 24.4548 407.963 44.9907C480.331 65.5268 542.111 113.473 580.482 178.882C615.393 238.393 628.486 308.204 617.889 376.147L639.23 360.819C642.79 358.262 647.724 359.11 650.25 362.713C652.777 366.316 651.939 371.309 648.379 373.866L590.366 415.537C586.806 418.093 581.872 417.246 579.345 413.643L538.175 354.926C535.649 351.323 536.487 346.33 540.046 343.772C543.606 341.215 548.54 342.063 551.066 345.666L567.885 369.652C589.273 238.089 502.937 112.701 372.799 88.0232C240.86 63.0041 113.863 150.976 89.1429 284.515C64.4235 418.053 151.342 546.589 283.281 571.609C396.497 593.077 506.073 531.347 550.511 429.022L555.777 431.375L565.778 457.193L591.074 447.155L596.533 449.596C566.166 519.179 510.496 574.259 441.074 603.408C371.652 632.555 293.807 633.534 223.691 606.14C153.576 578.745 96.5715 525.08 64.5069 456.281C32.4424 387.482 27.7792 308.829 51.4841 236.642C75.1891 164.455 125.443 104.276 191.818 68.5907Z"/>
    </clipPath>
  </defs>
<title>olycy</title></svg>
